<svg width="24" height="24" viewBox="0 0 24 24" fill="none" xmlns="http://www.w3.org/2000/svg">
<path d="M9.86864 11.259C9.86864 11.259 11.9606 11.1037 11.9606 8.65054C11.9606 6.19725 10.2491 5 8.08116 5H0.947266V18.7093H8.08116C8.08116 18.7093 12.4361 18.8469 12.4361 14.663C12.4361 14.663 12.626 11.259 9.86864 11.259ZM7.56767 7.43668H8.08116C8.08116 7.43668 9.05086 7.43668 9.05086 8.86308C9.05086 10.2893 8.48057 10.4961 7.83371 10.4961H4.09055V7.43668H7.56767ZM7.87957 16.2727H4.09055V12.6091H8.08116C8.08116 12.6091 9.52646 12.5901 9.52646 14.4918C9.52646 16.0954 8.44696 16.2606 7.87957 16.2727ZM18.2443 8.48806C12.9721 8.48806 12.9768 13.7556 12.9768 13.7556C12.9768 13.7556 12.615 18.9961 18.2443 18.9961C18.2443 18.9961 22.9352 19.2641 22.9352 15.3506H20.5227C20.5227 15.3506 20.6032 16.8244 18.3247 16.8244C18.3247 16.8244 15.9118 16.9861 15.9118 14.4392H23.0157C23.0157 14.4392 23.793 8.48806 18.2443 8.48806ZM15.8853 12.6091C15.8853 12.6091 16.1799 10.496 18.2979 10.496C20.4154 10.496 20.3888 12.6091 20.3888 12.6091H15.8853ZM20.9508 7.49586H15.2947V5.80766H20.9508V7.49586Z" fill="white"/>
</svg>
