<svg width="24" height="24" viewBox="0 0 24 24" fill="none" xmlns="http://www.w3.org/2000/svg">
<path d="M5.17647 7.7941C6.3785 7.7941 7.35294 6.81966 7.35294 5.61763C7.35294 4.4156 6.3785 3.44116 5.17647 3.44116C3.97444 3.44116 3 4.4156 3 5.61763C3 6.81966 3.97444 7.7941 5.17647 7.7941Z" fill="white"/>
<path d="M11.1765 8.91175V20.5588V8.91175ZM5.17647 8.91175V20.5588V8.91175Z" fill="white"/>
<path fill-rule="evenodd" clip-rule="evenodd" d="M3.23529 20.5588V8.91175H7.11765V20.5588H3.23529ZM9.23529 20.5588V8.91175H13.1176V20.5588H9.23529Z" fill="white"/>
<path d="M13.0588 14.0882C13.0588 12.9118 13.8235 11.7353 15.1765 11.7353C16.5882 11.7353 17.1176 12.7941 17.1176 14.3823V20.5588H21V13.9118C21 10.3235 19.1176 8.67646 16.5294 8.67646C14.5294 8.67646 13.5294 9.7941 13.0588 10.5588" fill="white"/>
</svg>
